# xmcd CD database file
#
# Track frame offsets:
#	150
#	31115
#	54736
#	77060
#	96370
#	124407
#	139657
#	168964
#	192465
#
# Disc length: 2905 seconds
#
# Revision: 0
# Processed by: cddbd v1.5.1PL0 Copyright (c) Steve Scherf et al.
# Submitted via: CDex 1.51
#
DISCID=790b5709
DTITLE=Kostas Konstantinou, Vassilis Tsabropoulos - Concentric Cycles
DYEAR=2003
DGENRE=Jazz
TTITLE0=Concentric Cycles
TTITLE1=Apartment 103
TTITLE2=Remembrance
TTITLE3=Bad Ladder
TTITLE4=Insomnia
TTITLE5=Guided Tour
TTITLE6=InThought ...
TTITLE7=Road Ends
TTITLE8=Internal Affairs
EXTD=YEAR: 2003
EXTT0=
EXTT1=
EXTT2=
EXTT3=
EXTT4=
EXTT5=
EXTT6=
EXTT7=
EXTT8=
PLAYORDER=
